<?xml version="1.0" encoding="utf-8"?>
<!-- Generator: Adobe Illustrator 16.0.0, SVG Export Plug-In . SVG Version: 6.00 Build 0)  -->
<!DOCTYPE svg PUBLIC "-//W3C//DTD SVG 1.1//EN" "http://www.w3.org/Graphics/SVG/1.1/DTD/svg11.dtd">
<svg version="1.1" id="Calque_1" xmlns="http://www.w3.org/2000/svg" xmlns:xlink="http://www.w3.org/1999/xlink" x="0px" y="0px"
	 width="700px" height="100px" viewBox="0 0 700 100" enable-background="new 0 0 700 100" xml:space="preserve">
<g>
	<path fill="#FFFFFF" d="M44.183,25.543v49.896l6.781,14.457l-11.131,5.5L28.831,80.684v-55.14H7.337V11.598h57.956v13.945H44.183z"
		/>
	<path fill="#FFFFFF" d="M113.778,95.141l-6.525-8.316c-5.117,3.199-13.689,7.678-22.517,7.678c-3.454,0-17.399-0.896-17.399-18.039
		V27.847h14.457v48.231c0,1.408,0.512,5.117,6.141,5.117c2.431,0,7.804-0.639,15.736-6.523V27.847h14.457v49.255l6.908,12.539
		L113.778,95.141z"/>
	<path fill="#FFFFFF" d="M168.66,93.223V44.862c0,0,0-4.989-4.861-4.989c-2.687,0-7.548,0.639-15.736,6.269v47.081h-14.457V42.304
		l-1.535-11.387l11.131-3.709l3.326,5.757c5.245-3.326,12.41-6.397,19.19-6.397c3.582,0,17.527,0.896,17.527,18.167v48.488H168.66z"
		/>
	<path fill="#FFFFFF" d="M203.839,22.857c-5.117,0-8.444-4.605-8.444-9.467c0-3.455,3.327-8.572,8.444-8.572
		c5.118,0,8.444,5.117,8.444,8.572C212.283,18.251,208.957,22.857,203.839,22.857z M196.547,93.094V27.718h14.584v65.375H196.547z"
		/>
	<path fill="#FFFFFF" d="M258.466,93.094h-15.48l-22.261-62.433l13.434-4.733l16.632,47.721l16.632-47.849l13.177,4.733
		L258.466,93.094z"/>
	<path fill="#FFFFFF" d="M297.484,22.857c-5.117,0-8.444-4.605-8.444-9.467c0-3.455,3.327-8.572,8.444-8.572
		c5.118,0,8.444,5.117,8.444,8.572C305.928,18.251,302.602,22.857,297.484,22.857z M290.192,93.094V27.718h14.584v65.375H290.192z"
		/>
	<path fill="#FFFFFF" d="M340.469,80.939c8.827,0,10.235-3.326,10.235-9.979c0-3.07-3.327-3.711-3.327-3.711l-14.329-3.453
		c-15.608-4.221-16.631-16.504-16.631-19.191c0-17.271,13.817-18.167,18.167-18.167c16.887,0,29.553,7.419,29.553,7.419
		l-5.629,11.387c-10.234-4.99-18.422-5.63-21.109-5.63c-5.373,0-6.525,1.664-6.525,7.676c0,2.304,3.455,2.942,3.455,2.942
		l14.201,3.326c11.77,2.688,16.76,10.877,16.76,17.273v2.43c0,11.898-6.27,20.982-24.82,20.982c-7.932,0-19.063-4.734-24.948-11.771
		l6.141-11.896C326.396,76.463,336.119,80.939,340.469,80.939z"/>
	<path fill="#FFFFFF" d="M383.325,22.857c-5.118,0-8.444-4.605-8.444-9.467c0-3.455,3.326-8.572,8.444-8.572
		c5.117,0,8.444,5.117,8.444,8.572C391.77,18.251,388.442,22.857,383.325,22.857z M376.032,93.094V27.718h14.585v65.375H376.032z"/>
	<path fill="#FFFFFF" d="M428.74,94.373c-25.459,0-25.459-14.969-25.459-17.783V44.35c0-2.815,1.151-17.783,25.459-17.783
		c25.46,0,25.46,14.968,25.46,17.783v32.24C454.2,76.59,454.2,94.373,428.74,94.373z M439.615,46.654
		c0-1.536-0.768-6.781-10.875-6.781c-10.106,0-10.874,5.245-10.874,6.781v28.145c0,1.791,0.768,6.27,10.874,6.27
		c10.107,0,10.875-4.479,10.875-6.27V46.654z"/>
	<path fill="#FFFFFF" d="M502.301,93.223V44.862c0,0,0-4.989-4.861-4.989c-2.688,0-7.549,0.639-15.736,6.269v47.081h-14.457V42.304
		l-1.535-11.387l11.131-3.709l3.326,5.757c5.245-3.326,12.41-6.397,19.189-6.397c3.583,0,17.527,0.896,17.527,18.167v48.488H502.301
		z"/>
	<path fill="#FFFFFF" d="M550.785,80.939c8.828,0,10.234-3.326,10.234-9.979c0-3.07-3.324-3.711-3.324-3.711l-14.33-3.453
		c-15.609-4.221-16.631-16.504-16.631-19.191c0-17.271,13.816-18.167,18.166-18.167c16.889,0,29.553,7.419,29.553,7.419
		l-5.629,11.387c-10.234-4.99-18.422-5.63-21.109-5.63c-5.373,0-6.525,1.664-6.525,7.676c0,2.304,3.455,2.942,3.455,2.942
		l14.201,3.326c11.77,2.688,16.76,10.877,16.76,17.273v2.43c0,11.898-6.27,20.982-24.82,20.982c-7.932,0-19.063-4.734-24.947-11.771
		l6.141-11.896C536.713,76.463,546.436,80.939,550.785,80.939z"/>
</g>
<g>
	<path fill="#FFFFFF" d="M592.555,91.941c0,4.449-7.207,4.764-7.207,0C585.348,87.367,592.555,87.178,592.555,91.941z"/>
	<path fill="#FFFFFF" d="M599.195,46.633h5.83v38.791c0,2.945,1.127,3.697,3.76,3.697v5.891c-7.145,0-9.59-1.818-9.59-9.525V46.633z
		"/>
	<path fill="#FFFFFF" d="M621.816,49.955c0,4.45-7.205,4.762-7.205,0C614.611,45.38,621.816,45.191,621.816,49.955z M615.174,95.012
		V58.604h5.953v36.408H615.174z"/>
	<path fill="#FFFFFF" d="M630.65,58.352h5.328l0.375,3.885c2.193-3.57,5.828-4.324,9.4-4.324c8.084,0,12.158,3.447,12.158,13.223
		v23.877h-6.018V71.199c0-5.201-2.82-7.834-7.143-7.834c-4.512,0-8.084,2.568-8.084,7.77v23.877h-6.018V58.352z"/>
	<path fill="#FFFFFF" d="M686.734,95.012l-12.408-16.293h-2.695v16.293h-5.951V46.633h5.951v26.445h2.383l11.342-14.727h7.27
		l-13.41,17.234l14.664,19.426H686.734z"/>
</g>
</svg>
