<?xml version="1.0" encoding="utf-8"?>
<!-- Generator: Adobe Illustrator 16.0.0, SVG Export Plug-In . SVG Version: 6.00 Build 0)  -->
<!DOCTYPE svg PUBLIC "-//W3C//DTD SVG 1.1//EN" "http://www.w3.org/Graphics/SVG/1.1/DTD/svg11.dtd">
<svg version="1.1" id="Calque_1" xmlns="http://www.w3.org/2000/svg" xmlns:xlink="http://www.w3.org/1999/xlink" x="0px" y="0px"
	 width="1024px" height="512px" viewBox="0 0 1024 512" enable-background="new 0 0 1024 512" xml:space="preserve">
<g>
	<path fill="#FFFFFF" d="M145.435,234.117v57.331l7.792,16.611l-12.79,6.321l-12.642-16.905v-63.358h-24.697v-16.023h66.593v16.023
		H145.435z"/>
	<path fill="#FFFFFF" d="M225.401,314.087l-7.497-9.556c-5.88,3.676-15.729,8.82-25.873,8.82c-3.969,0-19.992-1.029-19.992-20.727
		v-55.861h16.611v55.42c0,1.617,0.588,5.88,7.056,5.88c2.793,0,8.967-0.735,18.082-7.497v-53.803H230.4v56.596l7.938,14.406
		L225.401,314.087z"/>
	<path fill="#FFFFFF" d="M288.462,311.882v-55.567c0,0,0-5.732-5.586-5.732c-3.087,0-8.673,0.734-18.082,7.203v54.097h-16.611
		v-58.507l-1.764-13.084l12.79-4.263l3.822,6.615c6.027-3.822,14.259-7.351,22.051-7.351c4.116,0,20.139,1.029,20.139,20.875v55.714
		H288.462z"/>
	<path fill="#FFFFFF" d="M328.884,231.03c-5.88,0-9.702-5.292-9.702-10.878c0-3.97,3.822-9.85,9.702-9.85
		c5.88,0,9.702,5.88,9.702,9.85C338.586,225.738,334.764,231.03,328.884,231.03z M320.505,311.734v-75.118h16.758v75.118H320.505z"
		/>
	<path fill="#FFFFFF" d="M391.652,311.734h-17.787l-25.579-71.737l15.436-5.438l19.11,54.832l19.11-54.979l15.141,5.438
		L391.652,311.734z"/>
	<path fill="#FFFFFF" d="M436.485,231.03c-5.88,0-9.702-5.292-9.702-10.878c0-3.97,3.822-9.85,9.702-9.85
		c5.88,0,9.702,5.88,9.702,9.85C446.187,225.738,442.365,231.03,436.485,231.03z M428.106,311.734v-75.118h16.758v75.118H428.106z"
		/>
	<path fill="#FFFFFF" d="M485.876,297.77c10.143,0,11.76-3.822,11.76-11.467c0-3.527-3.822-4.263-3.822-4.263l-16.464-3.969
		c-17.935-4.851-19.11-18.964-19.11-22.051c0-19.845,15.876-20.874,20.875-20.874c19.404,0,33.958,8.525,33.958,8.525l-6.468,13.084
		c-11.76-5.733-21.168-6.469-24.256-6.469c-6.174,0-7.497,1.912-7.497,8.82c0,2.646,3.969,3.381,3.969,3.381l16.317,3.822
		c13.524,3.088,19.257,12.496,19.257,19.846v2.793c0,13.672-7.203,24.108-28.519,24.108c-9.114,0-21.904-5.438-28.666-13.524
		l7.056-13.671C469.706,292.625,480.878,297.77,485.876,297.77z"/>
	<path fill="#FFFFFF" d="M535.119,231.03c-5.881,0-9.702-5.292-9.702-10.878c0-3.97,3.821-9.85,9.702-9.85
		c5.88,0,9.702,5.88,9.702,9.85C544.821,225.738,540.999,231.03,535.119,231.03z M526.739,311.734v-75.118h16.759v75.118H526.739z"
		/>
	<path fill="#FFFFFF" d="M587.303,313.205c-29.254,0-29.254-17.199-29.254-20.434v-37.045c0-3.234,1.323-20.434,29.254-20.434
		c29.254,0,29.254,17.199,29.254,20.434v37.045C616.557,292.771,616.557,313.205,587.303,313.205z M599.798,258.373
		c0-1.765-0.882-7.791-12.495-7.791s-12.495,6.026-12.495,7.791v32.34c0,2.059,0.882,7.203,12.495,7.203s12.495-5.145,12.495-7.203
		V258.373z"/>
	<path fill="#FFFFFF" d="M671.825,311.882v-55.567c0,0,0-5.732-5.586-5.732c-3.087,0-8.673,0.734-18.081,7.203v54.097h-16.611
		v-58.507l-1.764-13.084l12.789-4.263l3.822,6.615c6.026-3.822,14.259-7.351,22.05-7.351c4.116,0,20.14,1.029,20.14,20.875v55.714
		H671.825z"/>
	<path fill="#FFFFFF" d="M727.536,297.77c10.144,0,11.76-3.822,11.76-11.467c0-3.527-3.821-4.263-3.821-4.263l-16.465-3.969
		c-17.935-4.851-19.11-18.964-19.11-22.051c0-19.845,15.876-20.874,20.874-20.874c19.405,0,33.958,8.525,33.958,8.525l-6.468,13.084
		c-11.761-5.733-21.169-6.469-24.256-6.469c-6.174,0-7.497,1.912-7.497,8.82c0,2.646,3.969,3.381,3.969,3.381l16.317,3.822
		c13.524,3.088,19.258,12.496,19.258,19.846v2.793c0,13.672-7.203,24.108-28.519,24.108c-9.114,0-21.903-5.438-28.666-13.524
		l7.057-13.671C711.365,292.625,722.538,297.77,727.536,297.77z"/>
</g>
<g>
	<path fill="#FFFFFF" d="M775.53,310.41c0,5.112-8.28,5.473-8.28,0C767.25,305.154,775.53,304.938,775.53,310.41z"/>
	<path fill="#FFFFFF" d="M783.161,258.35h6.697v44.572c0,3.384,1.296,4.248,4.32,4.248v6.769c-8.209,0-11.018-2.089-11.018-10.944
		V258.35z"/>
	<path fill="#FFFFFF" d="M809.153,262.166c0,5.112-8.28,5.473-8.28,0C800.873,256.91,809.153,256.693,809.153,262.166z
		 M801.521,313.938v-41.835h6.841v41.835H801.521z"/>
	<path fill="#FFFFFF" d="M819.304,271.814h6.121l0.432,4.465c2.521-4.104,6.697-4.969,10.801-4.969
		c9.289,0,13.97,3.961,13.97,15.193v27.435h-6.913v-27.362c0-5.977-3.24-9.001-8.208-9.001c-5.185,0-9.289,2.952-9.289,8.929v27.435
		h-6.913V271.814z"/>
	<path fill="#FFFFFF" d="M883.745,313.938l-14.257-18.722h-3.097v18.722h-6.84V258.35h6.84v30.387h2.736l13.033-16.922h8.354
		l-15.41,19.803l16.85,22.321H883.745z"/>
</g>
</svg>
